<?xml version="1.0" standalone="no"?><!DOCTYPE svg PUBLIC "-//W3C//DTD SVG 1.1//EN" "http://www.w3.org/Graphics/SVG/1.1/DTD/svg11.dtd"><svg t="1677310772328" class="icon" viewBox="0 0 1024 1024" version="1.1" xmlns="http://www.w3.org/2000/svg" p-id="32670" xmlns:xlink="http://www.w3.org/1999/xlink" width="32" height="32"><path d="M852.5 234.5H513V159c0-20.8-16.9-37.7-37.7-37.7H135.7c-20.8 0-37.7 16.9-37.7 37.7v670.7c0 41.7 33.8 75.5 75.4 75.5h679.1c41.7 0 75.5-33.8 75.5-75.5V309.9c0-41.7-33.8-75.4-75.5-75.4z m-39.8 301.8H213.2c-12.7 0-23.1-10.3-23.1-23.1 0-12.7 10.3-23.1 23.1-23.1H263L330.6 373c12.7-22.1 40.9-29.6 63-16.9l232.1 134h187.1c12.7 0 23.1 10.3 23.1 23.1-0.1 12.8-10.4 23.1-23.2 23.1z" p-id="32671" fill=""></path></svg>
