<?xml version="1.0" standalone="no"?><!DOCTYPE svg PUBLIC "-//W3C//DTD SVG 1.1//EN" "http://www.w3.org/Graphics/SVG/1.1/DTD/svg11.dtd"><svg t="1677310861071" class="icon" viewBox="0 0 1024 1024" version="1.1" xmlns="http://www.w3.org/2000/svg" p-id="38231" xmlns:xlink="http://www.w3.org/1999/xlink" width="32" height="32"><path d="M483.878272 0c-266.916179 0-483.302912 216.386732-483.302911 483.302912s216.386732 483.302912 483.302911 483.302911 483.302912-216.386732 483.302912-483.302911-216.373946-483.302912-483.302912-483.302912z m196.517613 392.050719c-2.199156 0-4.359955-0.153429-6.482397-0.434717l-94.525355 119.636649c2.109656 5.472319 3.285948 11.404926 3.285949 17.618821 0 26.990805-21.876489 48.867294-48.867295 48.867294-26.402659 0-47.90836-20.943126-48.816151-47.128427l-45.709204-36.656863a48.611579 48.611579 0 0 1-22.745923 5.612962c-9.282484 0-17.976823-2.595516-25.36701-7.096114l-112.093032 106.697428c0.421931 2.569944 0.63929 5.203817 0.639289 7.888834 0 26.990805-21.876489 48.867294-48.867294 48.867294s-48.867294-21.876489-48.867294-48.867294 21.876489-48.867294 48.867294-48.867295c4.781886 0 9.397557 0.703219 13.770297 1.981798l123.76646-117.821067c3.963595-23.014424 23.99893-40.518173 48.138505-40.518173 26.146943 0 47.486429 20.533981 48.803365 46.348494l46.310136 37.142724a48.675508 48.675508 0 0 1 22.157776-5.31889c1.304151 0 2.58273 0.063929 3.861309 0.166216l96.264223-121.835806a48.63715 48.63715 0 0 1-2.403729-15.151162c0-26.990805 21.876489-48.867294 48.867295-48.867295s48.867294 21.876489 48.867294 48.867295-21.876489 48.867294-48.854508 48.867294z" fill="#bfbfbf" p-id="38232"></path><path d="M999.388592 897.127833l-112.681179-107.055431a509.011302 509.011302 0 0 1-105.26542 102.912835l116.631989 110.788881c29.458463 27.975311 76.011529 26.786233 103.98684-2.67223 27.975311-29.432892 26.786233-75.985958-2.67223-103.974055z" fill="" p-id="38233"></path></svg>
