<?xml version="1.0" standalone="no"?><!DOCTYPE svg PUBLIC "-//W3C//DTD SVG 1.1//EN" "http://www.w3.org/Graphics/SVG/1.1/DTD/svg11.dtd"><svg t="1677311520714" class="icon" viewBox="0 0 1024 1024" version="1.1" xmlns="http://www.w3.org/2000/svg" p-id="38737" xmlns:xlink="http://www.w3.org/1999/xlink" width="32" height="32"><path d="M945.8 397.9l-3.9-3.9-401-210.5c-8.3-6.1-18.3-9.5-28.9-9.5-10.5 0-20.6 3.3-28.9 9.5L82.2 394l-3.9 3.9c-9.2 9.2-14.2 21.4-14.2 34.4s5.1 25.2 14.2 34.4l5.5 5.5 8.7 3.4v170c0 15.9 13 28.9 28.9 28.9s28.9-12.9 28.9-28.9V497.7l79.6 30.7v274.5c0 26 21.8 47.2 48.6 47.2h474.3c26.8 0 48.6-21.2 48.6-47.2V526.5v-0.9l139-53.6 5.5-5.5c9.2-9.2 14.2-21.4 14.2-34.4-0.1-12.8-5.2-25-14.3-34.2zM728.4 777.1H302.7V556.5L485.5 627c7.8 5.1 17 7.8 26.5 7.8 9.6 0 18.7-2.7 26.5-7.8l189.8-73.2v223.3zM512 559.1L173.3 428.5 512 250.7l338.7 177.8L512 559.1z" p-id="38738" fill=""></path></svg>
