<?xml version="1.0" standalone="no"?><!DOCTYPE svg PUBLIC "-//W3C//DTD SVG 1.1//EN" "http://www.w3.org/Graphics/SVG/1.1/DTD/svg11.dtd"><svg t="1677310803431" class="icon" viewBox="0 0 1024 1024" version="1.1" xmlns="http://www.w3.org/2000/svg" p-id="34162" xmlns:xlink="http://www.w3.org/1999/xlink" width="32" height="32"><path d="M849 47c49.706 0 90 40.294 90 90v749c0 49.706-40.294 90-90 90H172c-49.706 0-90-40.294-90-90V137c0-49.706 40.294-90 90-90h677zM739.5 751h-457c-15.188 0-27.5 12.312-27.5 27.5s12.312 27.5 27.5 27.5h457c15.188 0 27.5-12.312 27.5-27.5S754.688 751 739.5 751z m0-122h-457c-15.188 0-27.5 12.312-27.5 27.5s12.312 27.5 27.5 27.5h457c15.188 0 27.5-12.312 27.5-27.5S754.688 629 739.5 629zM449.636 447l31.51 82.087c3.96 10.312 15.528 15.463 25.84 11.504 10.312-3.958 15.462-15.527 11.504-25.839L408.113 227.21c-3.51-9.144-13.004-14.23-22.3-12.504-8.303-0.3-16.248 4.634-19.393 12.825L256.043 515.073c-3.958 10.312 1.192 21.88 11.504 25.839 10.312 3.958 21.881-1.192 25.84-11.504L325.018 447h124.617zM739.5 475h-158c-15.188 0-27.5 12.312-27.5 27.5s12.312 27.5 27.5 27.5h158c15.188 0 27.5-12.312 27.5-27.5S754.688 475 739.5 475zM655 222c-12.15 0-22 9.85-22 22v56h-57c-12.029 0-21.803 9.654-21.997 21.636L554 322c0 12.15 9.85 22 22 22h57v46c0 12.029 9.654 21.803 21.636 21.997L655 412c12.15 0 22-9.85 22-22v-46h46c12.029 0 21.803-9.654 21.997-21.636L745 322c0-12.15-9.85-22-22-22h-46v-56c0-12.029-9.654-21.803-21.636-21.997z m-267.672 62.68L434.282 407h-93.909l46.955-122.32z" fill="" p-id="34163"></path></svg>
