<?xml version="1.0" standalone="no"?><!DOCTYPE svg PUBLIC "-//W3C//DTD SVG 1.1//EN" "http://www.w3.org/Graphics/SVG/1.1/DTD/svg11.dtd"><svg t="1677307115284" class="icon" viewBox="0 0 1024 1024" version="1.1" xmlns="http://www.w3.org/2000/svg" p-id="18690" xmlns:xlink="http://www.w3.org/1999/xlink" width="32" height="32"><path d="M512.33 512c156.739 0 304.3 56.15 442.684 168.452A100 100 0 0 1 992 758.101V948c0 24.3-19.7 44-44 44H76c-24.3 0-44-19.7-44-44V758.185a100 100 0 0 1 37.088-77.73C207.842 568.15 355.589 512 512.33 512zM637 707H387c-41.421 0-75 33.579-75 75 0 41.007 32.91 74.328 73.76 74.99l1.24 0.01h250c41.421 0 75-33.579 75-75s-33.579-75-75-75zM512 32c132.548 0 240 107.452 240 240S644.548 512 512 512 272 404.548 272 272 379.452 32 512 32z" fill="" p-id="18691"></path></svg>
